# xmcd CD database file
#
# Track frame offsets:
#	183
#	16998
#	28273
#	40765
#	54920
#	73128
#	85948
#	103178
#	117028
#	130118
#	142960
#	157968
#	172010
#	187295
#	199690
#	212673
#
# Disc length: 3107 seconds
#
# Revision: 0
# Processed by: cddbd v1.4PL0 Copyright (c) Steve Scherf et al.
# Submitted via: CDex 1.50beta9
#
DISCID=e00c2110
DTITLE=BIG TOM - TO DAY
DYEAR=1900
DGENRE=Country
TTITLE0=The G.N.R. Steam Train
TTITLE1=Stormy Horizons
TTITLE2=Where We'll Never Grow Old 
TTITLE3=Nothing I Can Do About It Now
TTITLE4=The Little Hills Of Monaghan
TTITLE5=Connemare Shore
TTITLE6=Southern Dixie Flyer
TTITLE7=King Deeds Never Make The News
TTITLE8=Footprnts In The Snow
TTITLE9=My Own Rolling Roe
TTITLE10=Tubbercurry
TTITLE11=Pieces Of You
TTITLE12=Me and Bobby Magee
TTITLE13=Fraulein
TTITLE14=Remblin Man
TTITLE15=Mainliners Magic Mix A.Big Tom - Pins and Needles B.Ronnie-Rock and Roll Music C.Big Tom-Hey Good Lookin D. Ginger.California Sun E
EXTD=
EXTT0=
EXTT1=
EXTT2=
EXTT3=
EXTT4=
EXTT5=
EXTT6=
EXTT7=
EXTT8=
EXTT9=
EXTT10=
EXTT11=
EXTT12=
EXTT13=
EXTT14=
EXTT15=
PLAYORDER=
